%TF.GenerationSoftware,KiCad,Pcbnew,7.0.6*%
%TF.CreationDate,2024-04-06T15:27:50-05:00*%
%TF.ProjectId,ESP32_S3_DEVKIT_EL_V1,45535033-325f-4533-935f-4445564b4954,rev?*%
%TF.SameCoordinates,Original*%
%TF.FileFunction,Soldermask,Bot*%
%TF.FilePolarity,Negative*%
%FSLAX46Y46*%
G04 Gerber Fmt 4.6, Leading zero omitted, Abs format (unit mm)*
G04 Created by KiCad (PCBNEW 7.0.6) date 2024-04-06 15:27:50*
%MOMM*%
%LPD*%
G01*
G04 APERTURE LIST*
%ADD10R,1.700000X1.700000*%
%ADD11O,1.700000X1.700000*%
%ADD12C,2.300000*%
%ADD13R,1.520000X1.520000*%
%ADD14C,1.520000*%
%ADD15R,2.600000X2.600000*%
%ADD16C,2.600000*%
%ADD17C,4.700000*%
%ADD18C,1.440000*%
G04 APERTURE END LIST*
D10*
%TO.C,J19*%
X30645000Y-18875000D03*
D11*
X28105000Y-18875000D03*
X25565000Y-18875000D03*
X23025000Y-18875000D03*
%TD*%
D10*
%TO.C,J20*%
X15350000Y-34180000D03*
D11*
X15350000Y-36720000D03*
X15350000Y-39260000D03*
X15350000Y-41800000D03*
%TD*%
D12*
%TO.C,J22*%
X5385000Y-63710000D03*
X5385000Y-75710000D03*
D13*
X10225000Y-72260000D03*
D14*
X7685000Y-71240000D03*
X10225000Y-70220000D03*
X7685000Y-69200000D03*
X10225000Y-68180000D03*
X7685000Y-67160000D03*
%TD*%
D10*
%TO.C,J3*%
X31312500Y-35392500D03*
D11*
X33852500Y-35392500D03*
X36392500Y-35392500D03*
X38932500Y-35392500D03*
%TD*%
D10*
%TO.C,J26*%
X15275000Y-66260000D03*
D11*
X15275000Y-68800000D03*
X15275000Y-71340000D03*
X15275000Y-73880000D03*
%TD*%
D10*
%TO.C,J1*%
X71760000Y-31800000D03*
D11*
X74300000Y-31800000D03*
X76840000Y-31800000D03*
X79380000Y-31800000D03*
X81920000Y-31800000D03*
X84460000Y-31800000D03*
X87000000Y-31800000D03*
X89540000Y-31800000D03*
%TD*%
D15*
%TO.C,J6*%
X95220000Y-74310000D03*
D16*
X95220000Y-69310000D03*
%TD*%
D10*
%TO.C,J4*%
X60000000Y-8200000D03*
D11*
X60000000Y-10740000D03*
X60000000Y-13280000D03*
X60000000Y-15820000D03*
X60000000Y-18360000D03*
X60000000Y-20900000D03*
X60000000Y-23440000D03*
X60000000Y-25980000D03*
%TD*%
D17*
%TO.C,*%
X96000000Y-3900000D03*
%TD*%
D12*
%TO.C,J12*%
X48200000Y-5200000D03*
X36200000Y-5200000D03*
D13*
X39650000Y-10040000D03*
D14*
X40670000Y-7500000D03*
X41690000Y-10040000D03*
X42710000Y-7500000D03*
X43730000Y-10040000D03*
X44750000Y-7500000D03*
%TD*%
D12*
%TO.C,J13*%
X32175000Y-5175000D03*
X20175000Y-5175000D03*
D13*
X23625000Y-10015000D03*
D14*
X24645000Y-7475000D03*
X25665000Y-10015000D03*
X26685000Y-7475000D03*
X27705000Y-10015000D03*
X28725000Y-7475000D03*
%TD*%
D10*
%TO.C,J33*%
X37600000Y-92800000D03*
D11*
X40140000Y-92800000D03*
X42680000Y-92800000D03*
X45220000Y-92800000D03*
X47760000Y-92800000D03*
X50300000Y-92800000D03*
X52840000Y-92800000D03*
X55380000Y-92800000D03*
%TD*%
D10*
%TO.C,J31*%
X37620000Y-96500000D03*
D11*
X40160000Y-96500000D03*
X42700000Y-96500000D03*
X45240000Y-96500000D03*
X47780000Y-96500000D03*
X50320000Y-96500000D03*
X52860000Y-96500000D03*
X55400000Y-96500000D03*
%TD*%
D12*
%TO.C,J9*%
X5425000Y-47850000D03*
X5425000Y-59850000D03*
D13*
X10265000Y-56400000D03*
D14*
X7725000Y-55380000D03*
X10265000Y-54360000D03*
X7725000Y-53340000D03*
X10265000Y-52320000D03*
X7725000Y-51300000D03*
%TD*%
D18*
%TO.C,RV1*%
X27615000Y-70100000D03*
X30155000Y-67560000D03*
X27615000Y-65020000D03*
%TD*%
D12*
%TO.C,J23*%
X5395000Y-79315000D03*
X5395000Y-91315000D03*
D13*
X10235000Y-87865000D03*
D14*
X7695000Y-86845000D03*
X10235000Y-85825000D03*
X7695000Y-84805000D03*
X10235000Y-83785000D03*
X7695000Y-82765000D03*
%TD*%
D18*
%TO.C,RV3*%
X49200000Y-70180000D03*
X51740000Y-67640000D03*
X49200000Y-65100000D03*
%TD*%
D17*
%TO.C,H3*%
X96300000Y-96100000D03*
%TD*%
D10*
%TO.C,J7*%
X63900000Y-8200000D03*
D11*
X63900000Y-10740000D03*
X63900000Y-13280000D03*
X63900000Y-15820000D03*
X63900000Y-18360000D03*
X63900000Y-20900000D03*
X63900000Y-23440000D03*
X63900000Y-25980000D03*
%TD*%
D10*
%TO.C,J28*%
X15300000Y-81020000D03*
D11*
X15300000Y-83560000D03*
X15300000Y-86100000D03*
X15300000Y-88640000D03*
%TD*%
D10*
%TO.C,J24*%
X15475000Y-50060000D03*
D11*
X15475000Y-52600000D03*
X15475000Y-55140000D03*
X15475000Y-57680000D03*
%TD*%
D10*
%TO.C,J18*%
X30645000Y-15025000D03*
D11*
X28105000Y-15025000D03*
X25565000Y-15025000D03*
X23025000Y-15025000D03*
%TD*%
D10*
%TO.C,J10*%
X30750000Y-58525000D03*
D11*
X33290000Y-58525000D03*
X35830000Y-58525000D03*
X38370000Y-58525000D03*
%TD*%
D10*
%TO.C,J25*%
X19325000Y-50060000D03*
D11*
X19325000Y-52600000D03*
X19325000Y-55140000D03*
X19325000Y-57680000D03*
%TD*%
D10*
%TO.C,J5*%
X94300000Y-24180000D03*
D11*
X94300000Y-21640000D03*
X94300000Y-19100000D03*
X94300000Y-16560000D03*
%TD*%
D10*
%TO.C,J21*%
X19200000Y-34180000D03*
D11*
X19200000Y-36720000D03*
X19200000Y-39260000D03*
X19200000Y-41800000D03*
%TD*%
D10*
%TO.C,J16*%
X45790000Y-15000000D03*
D11*
X43250000Y-15000000D03*
X40710000Y-15000000D03*
X38170000Y-15000000D03*
%TD*%
D18*
%TO.C,RV2*%
X38515000Y-70140000D03*
X41055000Y-67600000D03*
X38515000Y-65060000D03*
%TD*%
D10*
%TO.C,J30*%
X16220000Y-92800000D03*
D11*
X18760000Y-92800000D03*
X21300000Y-92800000D03*
X23840000Y-92800000D03*
X26380000Y-92800000D03*
X28920000Y-92800000D03*
X31460000Y-92800000D03*
X34000000Y-92800000D03*
%TD*%
D10*
%TO.C,J11*%
X16200000Y-96500000D03*
D11*
X18740000Y-96500000D03*
X21280000Y-96500000D03*
X23820000Y-96500000D03*
X26360000Y-96500000D03*
X28900000Y-96500000D03*
X31440000Y-96500000D03*
X33980000Y-96500000D03*
%TD*%
D10*
%TO.C,J29*%
X19000000Y-80980000D03*
D11*
X19000000Y-83520000D03*
X19000000Y-86060000D03*
X19000000Y-88600000D03*
%TD*%
D12*
%TO.C,J14*%
X5400000Y-32350000D03*
X5400000Y-44350000D03*
D13*
X10240000Y-40900000D03*
D14*
X7700000Y-39880000D03*
X10240000Y-38860000D03*
X7700000Y-37840000D03*
X10240000Y-36820000D03*
X7700000Y-35800000D03*
%TD*%
D10*
%TO.C,J27*%
X19125000Y-66260000D03*
D11*
X19125000Y-68800000D03*
X19125000Y-71340000D03*
X19125000Y-73880000D03*
%TD*%
D17*
%TO.C,*%
X3900000Y-96200000D03*
%TD*%
%TO.C,*%
X3600000Y-4000000D03*
%TD*%
D10*
%TO.C,J15*%
X71737652Y-35752944D03*
D11*
X74277652Y-35752944D03*
X76817652Y-35752944D03*
X79357652Y-35752944D03*
X81897652Y-35752944D03*
X84437652Y-35752944D03*
X86977652Y-35752944D03*
X89517652Y-35752944D03*
%TD*%
D10*
%TO.C,J32*%
X31220000Y-75500000D03*
D11*
X33760000Y-75500000D03*
X36300000Y-75500000D03*
%TD*%
D10*
%TO.C,J17*%
X45790000Y-18850000D03*
D11*
X43250000Y-18850000D03*
X40710000Y-18850000D03*
X38170000Y-18850000D03*
%TD*%
M02*
