%TF.GenerationSoftware,KiCad,Pcbnew,7.0.6*%
%TF.CreationDate,2024-04-06T15:27:50-05:00*%
%TF.ProjectId,ESP32_S3_DEVKIT_EL_V1,45535033-325f-4533-935f-4445564b4954,rev?*%
%TF.SameCoordinates,Original*%
%TF.FileFunction,Paste,Top*%
%TF.FilePolarity,Positive*%
%FSLAX46Y46*%
G04 Gerber Fmt 4.6, Leading zero omitted, Abs format (unit mm)*
G04 Created by KiCad (PCBNEW 7.0.6) date 2024-04-06 15:27:50*
%MOMM*%
%LPD*%
G01*
G04 APERTURE LIST*
G04 Aperture macros list*
%AMRoundRect*
0 Rectangle with rounded corners*
0 $1 Rounding radius*
0 $2 $3 $4 $5 $6 $7 $8 $9 X,Y pos of 4 corners*
0 Add a 4 corners polygon primitive as box body*
4,1,4,$2,$3,$4,$5,$6,$7,$8,$9,$2,$3,0*
0 Add four circle primitives for the rounded corners*
1,1,$1+$1,$2,$3*
1,1,$1+$1,$4,$5*
1,1,$1+$1,$6,$7*
1,1,$1+$1,$8,$9*
0 Add four rect primitives between the rounded corners*
20,1,$1+$1,$2,$3,$4,$5,0*
20,1,$1+$1,$4,$5,$6,$7,0*
20,1,$1+$1,$6,$7,$8,$9,0*
20,1,$1+$1,$8,$9,$2,$3,0*%
G04 Aperture macros list end*
%ADD10RoundRect,0.150000X-0.825000X-0.150000X0.825000X-0.150000X0.825000X0.150000X-0.825000X0.150000X0*%
%ADD11RoundRect,0.237500X0.300000X0.237500X-0.300000X0.237500X-0.300000X-0.237500X0.300000X-0.237500X0*%
%ADD12RoundRect,0.250000X0.412500X0.650000X-0.412500X0.650000X-0.412500X-0.650000X0.412500X-0.650000X0*%
%ADD13RoundRect,0.250000X0.375000X0.625000X-0.375000X0.625000X-0.375000X-0.625000X0.375000X-0.625000X0*%
%ADD14RoundRect,0.250000X-1.000000X-0.650000X1.000000X-0.650000X1.000000X0.650000X-1.000000X0.650000X0*%
%ADD15R,1.250000X1.000000*%
%ADD16R,1.000000X1.250000*%
%ADD17RoundRect,0.250000X-0.312500X-0.625000X0.312500X-0.625000X0.312500X0.625000X-0.312500X0.625000X0*%
%ADD18R,2.800000X1.100000*%
%ADD19R,2.600000X1.100000*%
%ADD20RoundRect,0.250000X-0.625000X0.312500X-0.625000X-0.312500X0.625000X-0.312500X0.625000X0.312500X0*%
%ADD21RoundRect,0.237500X0.237500X-0.300000X0.237500X0.300000X-0.237500X0.300000X-0.237500X-0.300000X0*%
%ADD22R,1.380000X0.450000*%
%ADD23R,1.300000X1.650000*%
%ADD24R,1.550000X1.425000*%
%ADD25R,1.900000X1.800000*%
%ADD26R,1.900000X1.000000*%
%ADD27RoundRect,0.237500X-0.300000X-0.237500X0.300000X-0.237500X0.300000X0.237500X-0.300000X0.237500X0*%
%ADD28RoundRect,0.150000X-0.512500X-0.150000X0.512500X-0.150000X0.512500X0.150000X-0.512500X0.150000X0*%
%ADD29RoundRect,0.237500X-0.237500X0.300000X-0.237500X-0.300000X0.237500X-0.300000X0.237500X0.300000X0*%
%ADD30RoundRect,0.250000X0.312500X0.625000X-0.312500X0.625000X-0.312500X-0.625000X0.312500X-0.625000X0*%
%ADD31RoundRect,0.250000X0.625000X-0.312500X0.625000X0.312500X-0.625000X0.312500X-0.625000X-0.312500X0*%
%ADD32R,1.500000X2.000000*%
%ADD33R,3.800000X2.000000*%
%ADD34RoundRect,0.250000X0.625000X-0.375000X0.625000X0.375000X-0.625000X0.375000X-0.625000X-0.375000X0*%
%ADD35R,1.500000X0.900000*%
%ADD36R,0.900000X1.500000*%
%ADD37R,0.900000X0.900000*%
%ADD38RoundRect,0.250000X-0.650000X0.412500X-0.650000X-0.412500X0.650000X-0.412500X0.650000X0.412500X0*%
%ADD39RoundRect,0.250000X0.650000X-0.412500X0.650000X0.412500X-0.650000X0.412500X-0.650000X-0.412500X0*%
%ADD40R,1.200000X1.950000*%
G04 APERTURE END LIST*
D10*
%TO.C,U1*%
X82720000Y-50160000D03*
X82720000Y-51430000D03*
X82720000Y-52700000D03*
X82720000Y-53970000D03*
X82720000Y-55240000D03*
X82720000Y-56510000D03*
X82720000Y-57780000D03*
X82720000Y-59050000D03*
X87670000Y-59050000D03*
X87670000Y-57780000D03*
X87670000Y-56510000D03*
X87670000Y-55240000D03*
X87670000Y-53970000D03*
X87670000Y-52700000D03*
X87670000Y-51430000D03*
X87670000Y-50160000D03*
%TD*%
D11*
%TO.C,C11*%
X86040000Y-70770000D03*
X84315000Y-70770000D03*
%TD*%
D12*
%TO.C,C9*%
X87462500Y-84900000D03*
X84337500Y-84900000D03*
%TD*%
D11*
%TO.C,C10*%
X87462500Y-89700000D03*
X85737500Y-89700000D03*
%TD*%
D12*
%TO.C,C12*%
X86670000Y-67800000D03*
X83545000Y-67800000D03*
%TD*%
D11*
%TO.C,C5*%
X23995000Y-54175000D03*
X22270000Y-54175000D03*
%TD*%
%TO.C,C6*%
X31700000Y-54165000D03*
X29975000Y-54165000D03*
%TD*%
D13*
%TO.C,LED 3*%
X39510000Y-23920000D03*
X36710000Y-23920000D03*
%TD*%
D14*
%TO.C,D13*%
X91680000Y-89710000D03*
X95680000Y-89710000D03*
%TD*%
D15*
%TO.C,BOOT*%
X65525000Y-49300000D03*
X73275000Y-49300000D03*
%TD*%
D13*
%TO.C,D1*%
X46400000Y-83800000D03*
X43600000Y-83800000D03*
%TD*%
D16*
%TO.C,BT4*%
X46170000Y-43845000D03*
X46170000Y-51595000D03*
%TD*%
D17*
%TO.C,R2*%
X76835000Y-48730000D03*
X79760000Y-48730000D03*
%TD*%
D18*
%TO.C,U4*%
X76500000Y-98100000D03*
D19*
X76600000Y-96100000D03*
X76600000Y-94100000D03*
X76600000Y-92100000D03*
X76600000Y-90100000D03*
X76600000Y-88100000D03*
X76600000Y-86100000D03*
X76600000Y-84100000D03*
X61200000Y-84100000D03*
X61200000Y-86100000D03*
X61200000Y-88100000D03*
X61200000Y-90100000D03*
X61200000Y-92100000D03*
X61200000Y-94100000D03*
X61200000Y-96100000D03*
X61200000Y-98100000D03*
%TD*%
D20*
%TO.C,R14*%
X72000000Y-71737500D03*
X72000000Y-74662500D03*
%TD*%
D11*
%TO.C,C8*%
X46635000Y-54095000D03*
X44910000Y-54095000D03*
%TD*%
D20*
%TO.C,R4*%
X66595000Y-2400000D03*
X66595000Y-5325000D03*
%TD*%
D13*
%TO.C,LED 1*%
X26230000Y-23910000D03*
X23430000Y-23910000D03*
%TD*%
D17*
%TO.C,R3*%
X43497500Y-87140000D03*
X46422500Y-87140000D03*
%TD*%
D21*
%TO.C,C14*%
X57275000Y-3822500D03*
X57275000Y-2097500D03*
%TD*%
D16*
%TO.C,BT2*%
X31230000Y-43845000D03*
X31230000Y-51595000D03*
%TD*%
D22*
%TO.C,J8*%
X94650000Y-62500000D03*
X94650000Y-61850000D03*
X94650000Y-61200000D03*
X94650000Y-60550000D03*
X94650000Y-59900000D03*
D23*
X97310000Y-64575000D03*
D24*
X94735000Y-63687500D03*
D25*
X97310000Y-62350000D03*
D26*
X97310000Y-59650000D03*
D24*
X94735000Y-58712500D03*
D23*
X97310000Y-57825000D03*
%TD*%
D17*
%TO.C,R8*%
X23515000Y-30200000D03*
X26440000Y-30200000D03*
%TD*%
%TO.C,R12*%
X76600000Y-57960000D03*
X79525000Y-57960000D03*
%TD*%
D27*
%TO.C,C13*%
X75940000Y-55410000D03*
X77665000Y-55410000D03*
%TD*%
D14*
%TO.C,D11*%
X91680000Y-80610000D03*
X95680000Y-80610000D03*
%TD*%
D28*
%TO.C,Q2*%
X76830000Y-63120000D03*
X76830000Y-65020000D03*
X79105000Y-64070000D03*
%TD*%
D17*
%TO.C,R11*%
X43577500Y-30200000D03*
X46502500Y-30200000D03*
%TD*%
D29*
%TO.C,C3*%
X54925000Y-2100000D03*
X54925000Y-3825000D03*
%TD*%
D15*
%TO.C,RESET*%
X65550000Y-54600000D03*
X73300000Y-54600000D03*
%TD*%
D30*
%TO.C,R1*%
X79732500Y-51440000D03*
X76807500Y-51440000D03*
%TD*%
%TO.C,R13*%
X79535000Y-60550000D03*
X76610000Y-60550000D03*
%TD*%
D31*
%TO.C,R7*%
X63185000Y-5305000D03*
X63185000Y-2380000D03*
%TD*%
D28*
%TO.C,Q3*%
X81500000Y-63150000D03*
X81500000Y-65050000D03*
X83775000Y-64100000D03*
%TD*%
D14*
%TO.C,D12*%
X91690000Y-85140000D03*
X95690000Y-85140000D03*
%TD*%
D32*
%TO.C,U3*%
X82890000Y-80660000D03*
X85190000Y-80660000D03*
D33*
X85190000Y-74360000D03*
D32*
X87490000Y-80660000D03*
%TD*%
D17*
%TO.C,R9*%
X29937500Y-30200000D03*
X32862500Y-30200000D03*
%TD*%
D13*
%TO.C,LED 4*%
X46420000Y-23920000D03*
X43620000Y-23920000D03*
%TD*%
D34*
%TO.C,D14*%
X75700000Y-74500000D03*
X75700000Y-71700000D03*
%TD*%
D16*
%TO.C,BT1*%
X23490000Y-43855000D03*
X23490000Y-51605000D03*
%TD*%
D29*
%TO.C,C1*%
X79670000Y-53967500D03*
X79670000Y-55692500D03*
%TD*%
D35*
%TO.C,U2*%
X71630000Y-7120000D03*
X71630000Y-8390000D03*
X71630000Y-9660000D03*
X71630000Y-10930000D03*
X71630000Y-12200000D03*
X71630000Y-13470000D03*
X71630000Y-14740000D03*
X71630000Y-16010000D03*
X71630000Y-17280000D03*
X71630000Y-18550000D03*
X71630000Y-19820000D03*
X71630000Y-21090000D03*
X71630000Y-22360000D03*
X71630000Y-23630000D03*
D36*
X73395000Y-24880000D03*
X74665000Y-24880000D03*
X75935000Y-24880000D03*
X77205000Y-24880000D03*
X78475000Y-24880000D03*
X79745000Y-24880000D03*
X81015000Y-24880000D03*
X82285000Y-24880000D03*
X83555000Y-24880000D03*
X84825000Y-24880000D03*
X86095000Y-24880000D03*
X87365000Y-24880000D03*
D35*
X89130000Y-23630000D03*
X89130000Y-22360000D03*
X89130000Y-21090000D03*
X89130000Y-19820000D03*
X89130000Y-18550000D03*
X89130000Y-17280000D03*
X89130000Y-16010000D03*
X89130000Y-14740000D03*
X89130000Y-13470000D03*
X89130000Y-12200000D03*
X89130000Y-10930000D03*
X89130000Y-9660000D03*
X89130000Y-8390000D03*
X89130000Y-7120000D03*
D37*
X77480000Y-13440000D03*
X77480000Y-14840000D03*
X77480000Y-16240000D03*
X77480000Y-16240000D03*
X78880000Y-13440000D03*
X78880000Y-13440000D03*
X78880000Y-14840000D03*
X78880000Y-16240000D03*
X80280000Y-13440000D03*
X80280000Y-14840000D03*
X80280000Y-16240000D03*
%TD*%
D16*
%TO.C,BT3*%
X38600000Y-43850000D03*
X38600000Y-51600000D03*
%TD*%
D22*
%TO.C,J2*%
X94670000Y-53030000D03*
X94670000Y-52380000D03*
X94670000Y-51730000D03*
X94670000Y-51080000D03*
X94670000Y-50430000D03*
D23*
X97330000Y-55105000D03*
D24*
X94755000Y-54217500D03*
D25*
X97330000Y-52880000D03*
D26*
X97330000Y-50180000D03*
D24*
X94755000Y-49242500D03*
D23*
X97330000Y-48355000D03*
%TD*%
D11*
%TO.C,C7*%
X39315000Y-54095000D03*
X37590000Y-54095000D03*
%TD*%
D38*
%TO.C,C2*%
X52195000Y-2160000D03*
X52195000Y-5285000D03*
%TD*%
D39*
%TO.C,C4*%
X60225000Y-5305000D03*
X60225000Y-2180000D03*
%TD*%
D17*
%TO.C,R10*%
X36667500Y-30200000D03*
X39592500Y-30200000D03*
%TD*%
D13*
%TO.C,LED 2*%
X32790000Y-23930000D03*
X29990000Y-23930000D03*
%TD*%
D40*
%TO.C,SWITCH LORA*%
X55800000Y-88350000D03*
X53300000Y-88350000D03*
X50800000Y-88350000D03*
X55800000Y-82700000D03*
X53300000Y-82700000D03*
X50800000Y-82700000D03*
%TD*%
M02*
