M48
; DRILL file {KiCad 7.0.6} date Sat Apr  6 15:28:03 2024
; FORMAT={-:-/ absolute / inch / decimal}
; #@! TF.CreationDate,2024-04-06T15:28:03-05:00
; #@! TF.GenerationSoftware,Kicad,Pcbnew,7.0.6
; #@! TF.FileFunction,Plated,1,2,PTH
FMAT,2
INCH
; #@! TA.AperFunction,Plated,PTH,ViaDrill
T1C0.0157
; #@! TA.AperFunction,Plated,PTH,ComponentDrill
T2C0.0315
; #@! TA.AperFunction,Plated,PTH,ComponentDrill
T3C0.0354
; #@! TA.AperFunction,Plated,PTH,ComponentDrill
T4C0.0394
; #@! TA.AperFunction,Plated,PTH,ComponentDrill
T5C0.0512
; #@! TA.AperFunction,Plated,PTH,ComponentDrill
T6C0.1063
%
G90
G05
T1
X0.2008Y-1.6014
X0.35Y-1.79
X0.8762Y-2.0657
X0.9331Y-1.5315
X0.9331Y-2.7087
X1.54Y-0.1293
X1.878Y-1.4409
X1.878Y-2.0079
X1.9488Y-1.4528
X1.9488Y-1.9449
X1.9843Y-2.9016
X2.0118Y-1.3386
X2.0512Y-1.3386
X2.0984Y-3.1929
X2.1142Y-1.3425
X2.1535Y-1.3386
X2.2244Y-1.3346
X2.3268Y-3.5512
X2.3543Y-2.5394
X2.4055Y-1.4134
X2.4055Y-1.8661
X2.4724Y-1.1969
X2.4724Y-1.8622
X2.5118Y-1.8622
X2.5276Y-1.1811
X2.5433Y-2.5394
X2.57Y-2.05
X2.6834Y-0.3981
X2.7205Y-0.8307
X2.7205Y-1.1024
X2.7244Y-2.0394
X2.752Y-0.3976
X2.8071Y-1.0433
X2.8858Y-1.9882
X2.8858Y-2.189
X2.8898Y-2.5236
X2.9449Y-1.8937
X2.9764Y-2.5591
X3.0591Y-2.1181
X3.1024Y-2.6811
X3.1378Y-3.1417
X3.1811Y-2.1929
X3.1811Y-2.3976
X3.3228Y-1.9764
X3.3307Y-2.176
X3.3337Y-2.23
X3.3819Y-3.4213
X3.4961Y-3.4724
X3.5157Y-1.126
X3.5787Y-0.9882
X3.5906Y-0.3858
X3.5906Y-1.9764
X3.601Y-2.0722
X3.6102Y-2.126
X3.6299Y-1.126
X3.6417Y-2.5472
T2
X1.0872Y-2.5598
X1.0872Y-2.7598
X1.1872Y-2.6598
X1.5163Y-2.5614
X1.5163Y-2.7614
X1.6163Y-2.6614
X1.937Y-2.563
X1.937Y-2.763
X2.037Y-2.663
T3
X0.3026Y-2.6441
X0.3026Y-2.7244
X0.3026Y-2.8047
X0.303Y-3.2585
X0.303Y-3.3388
X0.303Y-3.4191
X0.3031Y-1.4094
X0.3031Y-1.4898
X0.3031Y-1.5701
X0.3041Y-2.0197
X0.3041Y-2.1
X0.3041Y-2.1803
X0.4026Y-2.6843
X0.4026Y-2.7646
X0.4026Y-2.8449
X0.403Y-3.2986
X0.403Y-3.3789
X0.403Y-3.4593
X0.4031Y-1.4496
X0.4031Y-1.5299
X0.4031Y-1.6102
X0.4041Y-2.0598
X0.4041Y-2.1402
X0.4041Y-2.2205
X0.9301Y-0.3943
X0.9703Y-0.2943
X1.0104Y-0.3943
X1.0506Y-0.2943
X1.0907Y-0.3943
X1.1309Y-0.2943
X1.561Y-0.3953
X1.6012Y-0.2953
X1.6413Y-0.3953
X1.6815Y-0.2953
X1.7217Y-0.3953
X1.7618Y-0.2953
T4
X0.6014Y-2.6087
X0.6014Y-2.7087
X0.6014Y-2.8087
X0.6014Y-2.9087
X0.6024Y-3.1898
X0.6024Y-3.2898
X0.6024Y-3.3898
X0.6024Y-3.4898
X0.6043Y-1.3457
X0.6043Y-1.4457
X0.6043Y-1.5457
X0.6043Y-1.6457
X0.6093Y-1.9709
X0.6093Y-2.0709
X0.6093Y-2.1709
X0.6093Y-2.2709
X0.6378Y-3.7992
X0.6386Y-3.6535
X0.7378Y-3.7992
X0.7386Y-3.6535
X0.748Y-3.1882
X0.748Y-3.2882
X0.748Y-3.3882
X0.748Y-3.4882
X0.753Y-2.6087
X0.753Y-2.7087
X0.753Y-2.8087
X0.753Y-2.9087
X0.7559Y-1.3457
X0.7559Y-1.4457
X0.7559Y-1.5457
X0.7559Y-1.6457
X0.7608Y-1.9709
X0.7608Y-2.0709
X0.7608Y-2.1709
X0.7608Y-2.2709
X0.8378Y-3.7992
X0.8386Y-3.6535
X0.9065Y-0.5915
X0.9065Y-0.7431
X0.9378Y-3.7992
X0.9386Y-3.6535
X1.0065Y-0.5915
X1.0065Y-0.7431
X1.0378Y-3.7992
X1.0386Y-3.6535
X1.1065Y-0.5915
X1.1065Y-0.7431
X1.1378Y-3.7992
X1.1386Y-3.6535
X1.2065Y-0.5915
X1.2065Y-0.7431
X1.2106Y-2.3041
X1.2291Y-2.9724
X1.2328Y-1.3934
X1.2378Y-3.7992
X1.2386Y-3.6535
X1.3106Y-2.3041
X1.3291Y-2.9724
X1.3328Y-1.3934
X1.3378Y-3.7992
X1.3386Y-3.6535
X1.4106Y-2.3041
X1.4291Y-2.9724
X1.4328Y-1.3934
X1.4803Y-3.6535
X1.4811Y-3.7992
X1.5028Y-0.5906
X1.5028Y-0.7421
X1.5106Y-2.3041
X1.5328Y-1.3934
X1.5803Y-3.6535
X1.5811Y-3.7992
X1.6028Y-0.5906
X1.6028Y-0.7421
X1.6803Y-3.6535
X1.6811Y-3.7992
X1.7028Y-0.5906
X1.7028Y-0.7421
X1.7803Y-3.6535
X1.7811Y-3.7992
X1.8028Y-0.5906
X1.8028Y-0.7421
X1.8803Y-3.6535
X1.8811Y-3.7992
X1.9803Y-3.6535
X1.9811Y-3.7992
X2.0803Y-3.6535
X2.0811Y-3.7992
X2.1803Y-3.6535
X2.1811Y-3.7992
X2.3622Y-0.3228
X2.3622Y-0.4228
X2.3622Y-0.5228
X2.3622Y-0.6228
X2.3622Y-0.7228
X2.3622Y-0.8228
X2.3622Y-0.9228
X2.3622Y-1.0228
X2.5157Y-0.3228
X2.5157Y-0.4228
X2.5157Y-0.5228
X2.5157Y-0.6228
X2.5157Y-0.7228
X2.5157Y-0.8228
X2.5157Y-0.9228
X2.5157Y-1.0228
X2.8243Y-1.4076
X2.8252Y-1.252
X2.9243Y-1.4076
X2.9252Y-1.252
X3.0243Y-1.4076
X3.0252Y-1.252
X3.1243Y-1.4076
X3.1252Y-1.252
X3.2243Y-1.4076
X3.2252Y-1.252
X3.3243Y-1.4076
X3.3252Y-1.252
X3.4243Y-1.4076
X3.4252Y-1.252
X3.5243Y-1.4076
X3.5252Y-1.252
X3.7126Y-0.652
X3.7126Y-0.752
X3.7126Y-0.852
X3.7126Y-0.952
T5
X3.7488Y-2.7287
X3.7488Y-2.9256
T6
X0.1417Y-0.1575
X0.1535Y-3.7874
X3.7795Y-0.1535
X3.7913Y-3.7835
T0
M30
